<?xml version="1.0" standalone="no"?>
<!DOCTYPE svg PUBLIC "-//W3C//DTD SVG 20010904//EN"
 "http://www.w3.org/TR/2001/REC-SVG-20010904/DTD/svg10.dtd">
<svg version="1.0" xmlns="http://www.w3.org/2000/svg"
 width="180.000000pt" height="196.000000pt" viewBox="0 0 180.000000 196.000000"
 preserveAspectRatio="xMidYMid meet">
<metadata>
Created by potrace 1.10, written by Peter Selinger 2001-2011
</metadata>
<g transform="translate(0.000000,196.000000) scale(0.100000,-0.100000)"
fill="#000000" stroke="none">
<path d="M818 1793 c23 -2 61 -2 85 0 23 2 4 4 -43 4 -47 0 -66 -2 -42 -4z"/>
<path d="M410 1684 c-155 -86 -289 -221 -374 -376 -20 -35 -36 -69 -36 -74 0
-5 18 24 40 65 91 166 215 290 380 380 41 22 71 41 65 41 -5 0 -39 -16 -75
-36z"/>
<path d="M1299 1680 c166 -91 290 -215 380 -380 22 -41 41 -71 41 -66 0 15
-69 137 -103 181 -48 63 -127 143 -188 190 -55 43 -177 115 -195 115 -5 0 24
-18 65 -40z"/>
<path d="M760 1660 c-310 -43 -565 -257 -666 -560 -26 -78 -28 -97 -29 -240 0
-135 3 -165 23 -230 70 -224 222 -401 427 -500 109 -53 180 -71 310 -77 243
-12 454 70 620 242 234 241 295 603 155 904 -78 166 -225 313 -393 391 -127
60 -310 88 -447 70z m240 -36 c328 -62 567 -298 634 -626 16 -78 21 -184 10
-225 -6 -22 -11 -23 -105 -23 l-99 0 0 103 c0 111 -14 177 -57 261 -100 197
-296 318 -518 319 -148 1 -283 -54 -395 -159 -123 -117 -185 -267 -178 -436
l3 -88 -101 0 -101 0 -7 48 c-6 51 6 179 25 257 6 28 27 83 45 123 105 230
305 390 554 443 107 22 185 23 290 3z m-41 -229 c180 -20 374 -185 426 -359
46 -152 37 -290 -25 -422 -66 -138 -229 -267 -372 -294 -68 -13 -185 -13 -250
1 -75 16 -182 74 -247 135 -144 133 -205 347 -156 539 56 212 245 380 457 404
40 4 82 7 93 5 11 -2 44 -6 74 -9z m545 -711 c-7 -26 10 -34 20 -9 8 23 28 18
21 -5 -4 -14 -2 -20 9 -20 8 0 18 9 21 21 10 31 28 8 19 -26 -6 -24 -10 -27
-38 -22 -17 3 -43 10 -59 16 -24 9 -27 15 -21 38 9 37 14 44 25 38 5 -4 6 -17
3 -31z m-1238 -30 c9 -34 -10 -53 -35 -37 -18 12 -31 8 -31 -9 0 -4 7 -8 15
-8 8 0 15 -4 15 -10 0 -5 -9 -10 -20 -10 -11 0 -20 -4 -20 -10 0 -5 -7 -10
-16 -10 -8 0 -13 4 -10 9 3 5 -1 22 -9 37 -28 54 -15 70 55 72 45 1 50 -1 56
-24z m64 -13 c7 -15 8 -21 1 -17 -7 5 -9 1 -5 -8 3 -9 10 -14 14 -11 4 3 11
-2 14 -11 4 -10 2 -13 -7 -8 -6 4 -2 -4 11 -18 12 -13 22 -33 22 -44 0 -16 2
-17 11 -4 8 12 9 11 7 -5 -2 -11 2 -19 9 -18 13 3 30 -15 35 -37 2 -8 20 -26
41 -38 21 -13 36 -29 34 -35 -8 -25 -46 -4 -85 47 -17 23 -20 31 -10 38 9 5 4
8 -13 8 -20 0 -30 8 -42 32 -9 18 -14 35 -11 39 2 4 -7 10 -21 13 -14 4 -25
11 -25 16 0 6 -8 10 -17 11 -11 0 -13 3 -5 6 6 2 12 13 12 24 0 10 4 19 10 19
5 0 7 8 3 18 -8 22 1 13 17 -17z m1075 -28 c-2 -10 -4 -20 -6 -23 -1 -3 -3
-11 -3 -19 -1 -8 -6 -16 -13 -18 -9 -3 -10 4 -3 26 13 46 32 72 25 34z m105 2
c7 -8 26 -15 42 -15 17 0 27 -4 23 -10 -3 -5 -17 -10 -30 -10 -31 0 -41 -17
-15 -25 17 -5 30 -35 15 -35 -13 0 -105 51 -105 58 0 15 31 52 44 52 8 0 19
-7 26 -15z m-1185 -96 c13 -40 -38 -66 -65 -34 -9 11 -17 12 -30 5 -13 -7 -21
-7 -25 1 -9 13 -10 12 45 43 47 26 63 23 75 -15z m1120 21 c-5 -15 2 -23 34
-40 23 -11 41 -25 41 -30 0 -20 -18 -18 -53 7 -31 22 -39 24 -52 13 -14 -12
-12 -17 20 -42 47 -40 47 -63 -1 -54 -19 4 -43 10 -52 12 -9 3 -2 -8 16 -23
17 -16 32 -33 32 -36 0 -18 -30 -3 -63 31 -30 30 -35 41 -25 49 8 6 21 7 33 2
40 -16 49 -10 25 15 l-23 25 27 45 c27 46 53 63 41 26z m-84 -31 c-11 -28 -31
-50 -91 -98 -63 -51 -70 -61 -77 -93 -4 -21 -9 -26 -16 -19 -14 14 -54 14 -62
1 -3 -5 -13 -10 -22 -10 -8 0 -28 -9 -43 -20 l-29 -20 -33 21 c-32 20 -32 21
-6 16 15 -2 25 0 22 4 -3 5 8 6 24 3 18 -4 32 -1 37 6 5 9 1 10 -16 6 -19 -6
-21 -5 -8 3 9 6 25 12 35 14 11 2 29 9 42 15 12 7 26 10 31 8 5 -3 11 1 15 9
3 8 15 15 26 15 11 0 19 6 17 13 -1 7 6 11 17 9 11 -2 15 1 11 8 -4 6 -1 9 7
8 7 -2 12 2 11 9 -2 6 19 31 45 54 26 23 40 39 32 35 -8 -4 -4 2 9 13 28 25
35 22 22 -10z m-996 -39 c6 -10 -53 -110 -65 -110 -15 0 -19 14 -9 27 14 17
-5 43 -29 40 -37 -5 -20 17 25 33 59 21 70 23 78 10z m42 -79 c-3 -14 -9 -35
-13 -46 -6 -16 -1 -15 23 8 17 16 33 25 36 20 8 -12 -72 -95 -85 -87 -10 6 -7
39 8 79 6 16 1 15 -23 -8 -46 -43 -47 -17 -1 31 42 45 63 46 55 3z m913 -16
c-16 -19 -6 -32 13 -17 18 15 30 3 16 -14 -18 -22 0 -38 21 -19 12 11 20 13
25 5 6 -9 -30 -49 -46 -50 -3 0 -18 13 -34 30 -23 24 -31 27 -47 19 -23 -13
-20 -47 5 -63 14 -9 21 -7 31 7 15 20 26 22 26 5 0 -17 -31 -48 -47 -48 -23 0
-63 47 -63 75 0 17 8 29 23 36 13 6 34 24 48 40 14 18 27 25 33 19 6 -6 4 -15
-4 -25z m-750 -20 c8 -2 19 -4 23 -4 5 -1 6 -5 3 -10 -3 -5 1 -12 10 -15 10
-4 13 -2 9 7 -4 6 3 1 14 -12 12 -13 19 -26 16 -29 -8 -8 -85 30 -79 39 3 5 0
9 -6 9 -6 0 -19 8 -28 17 -16 16 -16 16 3 9 11 -4 27 -9 35 -11z m-56 -30 c8
-8 19 -15 25 -15 14 0 14 -6 1 -30 -8 -15 -6 -21 9 -29 15 -9 20 -7 24 9 3 11
13 20 22 20 9 0 15 -3 13 -7 -31 -66 -54 -103 -63 -99 -5 2 -8 10 -6 17 8 31
5 43 -11 47 -11 2 -18 -3 -18 -12 0 -8 -5 -18 -11 -21 -20 -13 -22 5 -4 45 15
32 15 42 5 55 -17 21 -37 19 -50 -4 -15 -29 -12 -41 13 -50 21 -8 21 -9 3 -17
-46 -18 -70 35 -36 79 24 30 60 35 84 12z m206 -36 c0 5 11 6 25 3 14 -2 25
-7 25 -11 0 -3 34 -5 75 -4 50 2 75 -1 75 -8 0 -6 -9 -9 -20 -6 -11 3 -18 2
-15 -3 10 -16 -23 -18 -46 -3 -15 11 -20 12 -14 3 7 -11 -2 -12 -46 -6 -30 4
-62 9 -72 10 -10 1 -25 10 -34 19 -16 16 -15 16 15 8 18 -5 32 -6 32 -2z m469
-53 c28 -28 39 -46 31 -51 -6 -4 -17 -2 -24 4 -18 15 -46 3 -46 -20 0 -34 -17
-20 -24 19 -9 59 -7 92 7 92 7 0 32 -20 56 -44z m-521 -44 c2 -42 -1 -62 -8
-62 -7 0 -14 9 -17 19 -6 23 -40 34 -47 15 -6 -16 -26 -19 -26 -3 0 17 72 100
84 96 6 -2 12 -31 14 -65z m438 3 c7 -41 7 -55 -2 -55 -6 0 -15 19 -19 43 l-8
42 -9 -52 c-5 -29 -14 -53 -19 -53 -5 0 -18 18 -29 41 -23 45 -37 48 -20 5 14
-37 13 -59 -2 -54 -14 5 -40 103 -30 113 14 14 39 2 57 -28 l19 -32 4 30 c5
46 10 55 30 55 14 0 20 -12 28 -55z m-386 18 l1 -28 18 23 c18 21 41 30 41 15
0 -4 -9 -17 -21 -29 -17 -18 -19 -26 -10 -42 14 -26 14 -42 1 -42 -6 0 -16 12
-22 28 -11 26 -12 26 -15 5 -3 -13 -11 -23 -20 -23 -11 0 -14 7 -10 23 3 12 9
39 12 60 8 43 25 50 25 10z m138 -51 c15 -55 9 -79 -12 -49 -17 22 -35 22 -52
0 -24 -34 -26 -3 -4 52 29 70 48 70 68 -3z m99 18 c0 -19 4 -45 8 -58 10 -31
-12 -29 -27 3 -6 14 -15 25 -20 25 -4 0 -8 -11 -8 -25 0 -16 -6 -25 -15 -25
-12 0 -15 13 -15 61 l0 60 38 -3 c35 -3 37 -5 39 -38z"/>
<path d="M793 1553 c2 -37 -2 -48 -13 -48 -9 0 -18 15 -24 43 -13 60 -36 57
-25 -4 11 -59 15 -64 49 -64 38 0 52 27 44 80 -9 58 -33 53 -31 -7z"/>
<path d="M860 1540 c0 -33 4 -60 10 -60 6 0 10 11 10 25 0 14 5 25 10 25 6 0
16 -11 22 -25 11 -25 28 -34 28 -14 0 6 -5 19 -11 30 -7 15 -7 24 2 35 17 20
-6 44 -42 44 -29 0 -29 -1 -29 -60z"/>
<path d="M971 1563 c1 -51 12 -88 27 -88 10 0 72 87 72 100 0 3 -6 5 -13 5 -7
0 -23 -19 -34 -42 -22 -43 -22 -43 -23 -13 -1 41 -10 75 -21 75 -5 0 -9 -17
-8 -37z"/>
<path d="M670 1553 l0 -26 -24 22 c-13 12 -26 18 -30 13 -3 -5 5 -19 18 -31
14 -13 27 -34 30 -47 9 -35 30 -30 23 5 -4 16 -2 43 3 60 7 24 6 31 -6 31 -9
0 -14 -10 -14 -27z"/>
<path d="M1080 1514 c-11 -26 -20 -48 -20 -50 0 -2 13 -10 29 -19 20 -10 32
-12 36 -4 4 6 -2 13 -14 16 -12 3 -21 12 -21 20 0 11 7 13 25 9 27 -7 36 11
10 20 -8 4 -15 13 -15 20 0 12 4 12 21 4 28 -15 39 -2 15 16 -32 23 -44 17
-66 -32z"/>
<path d="M546 1532 c-10 -16 7 -123 18 -119 6 2 10 11 10 20 -2 21 33 32 51
17 7 -6 15 -7 18 -3 6 9 -69 93 -83 93 -5 0 -11 -4 -14 -8z"/>
<path d="M1166 1473 c-15 -25 -25 -47 -24 -48 37 -30 83 -31 102 -3 23 32 20
63 -9 82 -35 23 -41 21 -69 -31z m67 2 c9 -21 -26 -60 -47 -52 -15 6 -15 9 -1
37 17 32 39 39 48 15z"/>
<path d="M430 1459 c0 -18 54 -89 68 -89 17 0 16 4 -20 55 -31 44 -48 56 -48
34z"/>
<path d="M1269 1409 c-19 -25 -28 -44 -22 -50 8 -8 73 64 73 83 0 19 -20 5
-51 -33z"/>
<path d="M377 1423 c-4 -3 0 -14 8 -23 14 -15 14 -18 0 -30 -13 -11 -19 -10
-35 5 -39 35 -22 -9 18 -48 37 -37 68 -41 36 -5 -14 14 -14 20 -4 33 12 14 15
14 31 -1 10 -9 23 -14 30 -12 8 3 -2 20 -25 46 -39 42 -47 47 -59 35z"/>
<path d="M1312 1377 c-12 -13 -22 -30 -22 -39 0 -17 31 -48 48 -48 17 0 15 17
-4 24 -20 8 -15 46 9 60 15 9 22 7 36 -11 17 -20 31 -21 31 -2 0 16 -32 39
-54 39 -12 0 -32 -10 -44 -23z"/>
<path d="M278 1316 c-27 -33 -28 -56 -1 -35 10 9 21 5 49 -16 23 -17 39 -24
45 -18 6 6 -3 19 -26 34 -28 19 -34 29 -30 47 8 31 -6 27 -37 -12z"/>
<path d="M1404 1267 c-22 -19 -26 -29 -20 -51 4 -15 13 -29 22 -33 22 -8 29 4
11 22 -20 20 -12 43 19 51 27 7 44 -1 44 -22 0 -8 5 -12 10 -9 15 9 12 23 -10
45 -26 26 -43 25 -76 -3z"/>
<path d="M219 1229 c-9 -17 -8 -25 4 -37 13 -13 20 -13 47 -2 38 16 49 7 25
-20 -16 -18 -17 -20 -1 -20 9 0 22 11 28 25 9 21 9 29 -5 42 -14 14 -21 15
-43 4 -31 -14 -42 -8 -24 14 10 12 10 15 -3 15 -9 0 -21 -10 -28 -21z"/>
<path d="M1485 1196 c-11 -6 -30 -17 -42 -24 -19 -11 -21 -16 -11 -37 6 -14
17 -25 25 -25 11 0 11 5 3 20 -9 17 -5 22 30 40 22 11 40 25 40 30 0 13 -20
11 -45 -4z"/>
<path d="M171 1123 c0 -22 77 -85 92 -76 6 4 4 10 -6 17 -18 14 -5 46 18 46 8
0 15 7 15 15 0 12 -13 15 -60 15 -51 0 -60 -3 -59 -17z"/>
<path d="M1491 1108 c-27 -12 -40 -23 -34 -29 11 -11 115 29 107 42 -8 13 -23
10 -73 -13z"/>
<path d="M1518 1058 c-60 -13 -65 -33 -6 -24 l42 7 -39 -35 c-30 -26 -36 -36
-25 -40 23 -9 103 8 108 23 5 14 -10 13 -65 -5 -10 -3 -1 8 19 26 22 19 35 37
31 46 -3 7 -8 13 -12 13 -3 -1 -27 -6 -53 -11z"/>
<path d="M144 1049 c-8 -14 -5 -16 42 -33 32 -12 35 -15 14 -15 -42 -2 -70
-13 -70 -27 0 -8 8 -14 18 -14 9 -1 28 -7 42 -15 24 -14 24 -14 -22 -15 -32 0
-48 -4 -48 -13 0 -9 15 -11 57 -7 65 6 81 25 34 43 -41 15 -39 27 4 27 23 0
35 5 35 14 0 19 -97 69 -106 55z"/>
<path d="M1528 933 c-41 -4 -53 -23 -15 -23 41 0 97 13 97 21 0 9 -11 9 -82 2z"/>
<path d="M1524 880 c-29 -12 -37 -26 -30 -56 7 -27 28 -33 25 -6 -3 38 1 43
34 40 28 -3 32 -6 30 -31 -2 -36 21 -31 25 5 2 18 -4 31 -20 42 -25 18 -33 19
-64 6z"/>
<path d="M124 866 c-19 -49 32 -76 61 -32 21 31 39 24 30 -11 -4 -18 -2 -24 7
-21 18 6 22 46 8 64 -19 22 -46 17 -58 -11 -14 -30 -37 -34 -29 -5 6 24 -11
38 -19 16z"/>
<path d="M740 1321 c-87 -23 -146 -59 -212 -129 -100 -105 -135 -210 -125
-376 4 -79 11 -105 41 -170 46 -100 133 -189 231 -236 67 -33 75 -34 185 -35
89 0 126 4 163 19 27 10 47 20 45 22 -2 2 -41 -3 -87 -11 -163 -29 -293 9
-403 116 -95 93 -130 168 -136 299 -7 153 36 271 132 357 94 84 190 118 319
111 65 -3 97 -10 139 -31 169 -83 269 -235 255 -391 -9 -106 -27 -164 -70
-229 -47 -70 -119 -129 -180 -147 -54 -16 -147 -25 -147 -14 0 28 43 70 105
102 65 34 72 42 107 107 35 66 37 75 36 154 -2 82 -2 83 -20 61 -10 -12 -18
-18 -18 -13 0 5 3 13 7 17 4 3 8 15 10 26 2 14 -2 18 -12 14 -8 -4 -15 -17
-15 -30 0 -14 -5 -23 -12 -22 -9 2 -13 -13 -13 -52 0 -53 -1 -56 -51 -101 -32
-29 -72 -53 -105 -64 -81 -26 -107 -42 -124 -75 -19 -37 -19 -73 0 -110 9 -17
11 -30 7 -30 -18 0 -107 43 -138 66 -34 25 -64 95 -64 149 0 39 -18 94 -38
118 -8 9 -13 20 -10 22 14 14 57 -58 63 -103 8 -68 33 -148 50 -162 20 -16 20
1 0 55 -8 22 -14 68 -15 101 0 72 -16 98 -84 138 -57 33 -68 33 -56 0 6 -14
10 -55 10 -92 0 -119 34 -185 129 -253 108 -78 261 -100 397 -58 114 35 199
110 253 222 37 76 55 200 42 282 -45 278 -316 451 -591 376z m360 -547 c0 -40
-90 -146 -154 -182 -54 -31 -94 -87 -82 -118 4 -10 -2 -14 -18 -14 -21 0 -25
6 -31 51 -10 72 10 96 106 129 41 14 78 26 83 26 16 3 62 61 58 73 -2 7 3 20
12 30 9 10 13 21 9 24 -3 4 -1 7 5 7 7 0 12 -12 12 -26z"/>
<path d="M682 1204 c-24 -17 -30 -62 -10 -82 7 -7 27 -12 45 -12 19 0 36 -6
41 -17 9 -14 10 -14 16 5 10 32 0 42 -45 42 -32 0 -39 3 -39 20 0 18 7 20 56
20 45 0 55 3 52 16 -4 23 -87 28 -116 8z"/>
<path d="M815 1208 c3 -8 -6 -45 -20 -81 -21 -52 -24 -70 -15 -86 14 -27 30
-27 37 -1 4 16 14 20 49 20 30 0 46 -5 50 -15 4 -8 15 -15 26 -15 12 0 18 5
15 13 -3 6 -20 47 -38 90 -29 70 -51 99 -65 85 -2 -3 7 -31 21 -62 21 -48 23
-57 10 -62 -8 -4 -22 -3 -30 0 -12 4 -14 10 -5 25 5 11 10 26 10 33 0 7 -11
-11 -25 -40 -14 -30 -25 -61 -25 -70 0 -12 -3 -13 -12 -4 -9 9 -5 24 15 64 31
60 34 90 12 108 -13 11 -14 10 -10 -2z"/>
<path d="M928 1215 c-7 -7 7 -93 21 -125 5 -14 10 -19 10 -12 1 7 16 12 40 12
67 0 93 59 46 105 -18 19 -35 25 -68 25 -24 0 -46 -2 -49 -5z m97 -65 c0 -21
-5 -26 -32 -28 -31 -3 -33 -1 -33 28 0 29 2 31 33 28 27 -2 32 -7 32 -28z"/>
<path d="M662 1050 c3 -15 67 -26 94 -16 31 12 2 31 -46 31 -40 0 -50 -3 -48
-15z"/>
<path d="M703 1005 c4 -9 7 -21 7 -25 0 -16 50 -60 69 -60 9 0 26 6 36 14 18
13 18 15 2 40 -10 14 -23 26 -30 27 -18 1 -42 6 -67 14 -19 6 -22 4 -17 -10z"/>
<path d="M937 1001 c-55 -19 -76 -44 -57 -67 20 -24 60 -17 91 17 26 28 40 70
22 68 -5 0 -30 -8 -56 -18z"/>
<path d="M838 995 c-3 -4 -4 -26 -2 -49 4 -41 3 -43 -21 -38 -17 3 -27 -1 -31
-13 -8 -20 10 -40 26 -30 9 6 9 9 -1 15 -7 5 8 8 34 8 25 -1 44 -5 41 -10 -3
-4 -14 -8 -25 -8 -40 0 -57 -17 -53 -52 9 -79 17 -113 25 -116 5 -2 7 -8 3
-13 -8 -13 5 -11 20 4 6 6 12 27 11 45 0 17 3 32 8 32 5 0 7 9 4 20 -3 11 -1
23 5 26 5 3 7 12 5 19 -3 6 4 20 15 29 16 14 17 20 7 32 -8 10 -21 13 -36 9
-20 -5 -23 -3 -16 12 18 40 3 100 -19 78z"/>
<path d="M1793 860 c0 -41 2 -58 4 -37 2 20 2 54 0 75 -2 20 -4 3 -4 -38z"/>
<path d="M1762 638 c-7 -28 -11 -53 -8 -55 2 -2 9 19 16 47 7 28 10 53 8 55
-3 3 -10 -18 -16 -47z"/>
<path d="M0 486 c0 -11 50 -106 55 -106 3 0 -7 24 -21 53 -28 55 -34 65 -34
53z"/>
<path d="M1691 443 c-57 -117 -159 -240 -265 -320 -67 -51 -90 -71 -66 -58 61
34 182 144 245 226 46 58 120 187 113 194 -2 3 -15 -17 -27 -42z"/>
<path d="M66 358 c38 -65 146 -182 225 -243 55 -43 177 -115 195 -115 5 0 -24
18 -65 40 -128 70 -239 168 -321 283 -31 43 -51 64 -34 35z"/>
<path d="M1280 30 c-30 -16 -51 -29 -47 -30 10 0 107 49 107 55 0 7 1 7 -60
-25z"/>
</g>
</svg>
